<svg width="1280" height="370" viewBox="0 0 1280 370" fill="none" xmlns="http://www.w3.org/2000/svg"><g clip-path="url(#clip0_857_289)"><path fill="#F6F8FB" d="M0 132h1280v8H0zM335.852 205.625h20.507v28.564c8.203-10.937 17.286-19.091 27.246-24.462 9.961-5.469 20.801-8.204 32.52-8.204 11.914 0 22.461 3.028 31.641 9.082 9.277 6.055 16.113 14.209 20.507 24.463 4.395 10.254 6.592 26.221 6.592 47.901V365h-20.361v-76.025c0-18.36-.781-30.616-2.344-36.768-2.441-10.547-7.031-18.457-13.769-23.73-6.739-5.372-15.528-8.057-26.368-8.057-12.402 0-23.535 4.101-33.398 12.305-9.766 8.203-16.211 18.359-19.336 30.468-1.953 7.911-2.93 22.364-2.93 43.36V365h-20.507V205.625zm263.232 17.432L585.9 236.68c-10.937-10.645-21.63-15.967-32.08-15.967-6.64 0-12.353 2.197-17.138 6.592-4.688 4.394-7.032 9.521-7.032 15.381 0 5.175 1.954 10.107 5.86 14.794 3.906 4.786 12.109 10.401 24.609 16.846 15.235 7.91 25.586 15.528 31.055 22.852 5.371 7.422 8.056 15.771 8.056 25.049 0 13.085-4.589 24.169-13.769 33.252-9.18 9.082-20.654 13.623-34.424 13.623-9.18 0-17.969-2.002-26.367-6.006-8.301-4.004-15.186-9.522-20.654-16.553l12.89-14.648c10.449 11.816 21.533 17.724 33.252 17.724 8.203 0 15.186-2.637 20.947-7.91 5.762-5.273 8.643-11.475 8.643-18.604 0-5.859-1.904-11.084-5.713-15.673-3.808-4.493-12.402-10.157-25.781-16.993-14.356-7.421-24.121-14.746-29.297-21.972-5.176-7.227-7.764-15.479-7.764-24.756 0-12.109 4.102-22.168 12.305-30.176 8.301-8.008 18.75-12.012 31.348-12.012 14.648 0 29.394 7.178 44.238 21.534zm36.475-78.955h20.507v90.087c8.301-10.937 17.432-19.091 27.393-24.462 9.961-5.469 20.752-8.204 32.373-8.204 11.914 0 22.461 3.028 31.641 9.082 9.277 6.055 16.113 14.209 20.507 24.463 4.395 10.157 6.592 26.123 6.592 47.901V365h-20.508v-76.025c0-18.36-.732-30.616-2.197-36.768-2.539-10.547-7.178-18.457-13.916-23.73-6.64-5.372-15.381-8.057-26.221-8.057-12.402 0-23.535 4.101-33.398 12.305-9.766 8.203-16.211 18.359-19.336 30.468-1.953 7.813-2.93 22.266-2.93 43.36V365h-20.507V144.102zM825.842 140c4.687 0 8.691 1.66 12.012 4.98 3.32 3.321 4.98 7.325 4.98 12.012 0 4.59-1.66 8.545-4.98 11.865-3.321 3.321-7.325 4.981-12.012 4.981-4.59 0-8.545-1.66-11.865-4.981-3.321-3.32-4.981-7.275-4.981-11.865 0-4.687 1.66-8.691 4.981-12.012 3.32-3.32 7.275-4.98 11.865-4.98zm-10.254 65.625h20.654V365h-20.654V205.625zm81.006-59.18h20.654v59.18h32.52v17.578h-32.52V365h-20.654V223.203h-27.979v-17.578h27.979v-59.18zm242.576 59.18V365h-20.21v-27.393c-8.6 10.45-18.26 18.311-29.01 23.584-10.64 5.274-22.31 7.911-35.01 7.911-22.56 0-41.84-8.155-57.858-24.463-15.918-16.407-23.877-36.328-23.877-59.766 0-22.949 8.057-42.578 24.17-58.887 16.115-16.308 35.495-24.463 58.155-24.463 13.09 0 24.9 2.784 35.45 8.35 10.64 5.566 19.97 13.916 27.98 25.049v-29.297h20.21zm-82.03 15.674c-11.43 0-21.97 2.832-31.64 8.496-9.67 5.566-17.38 13.428-23.14 23.584-5.669 10.156-8.501 20.898-8.501 32.226 0 11.231 2.881 21.973 8.641 32.227 5.76 10.254 13.48 18.262 23.15 24.023 9.76 5.665 20.21 8.497 31.34 8.497 11.23 0 21.88-2.832 31.94-8.497 10.06-5.664 17.77-13.33 23.14-22.998 5.47-9.668 8.21-20.556 8.21-32.666 0-18.457-6.11-33.886-18.32-46.289-12.1-12.402-27.05-18.603-44.82-18.603z"/><path d="M275.031 312.119l17.285 9.082c-5.664 11.133-12.207 20.117-19.628 26.953-7.422 6.836-15.772 12.061-25.049 15.674-9.278 3.516-19.776 5.274-31.494 5.274-25.977 0-46.29-8.497-60.938-25.489-14.648-17.09-21.973-36.377-21.973-57.861 0-20.215 6.202-38.232 18.604-54.053 15.723-20.117 36.767-30.176 63.135-30.176 27.148 0 48.828 10.303 65.039 30.909 11.523 14.55 17.383 32.714 17.578 54.492H154.328c.391 18.555 6.299 33.789 17.725 45.703 11.426 11.816 25.537 17.725 42.334 17.725 8.105 0 15.967-1.416 23.584-4.248 7.715-2.833 14.258-6.592 19.629-11.28 5.371-4.687 11.181-12.256 17.431-22.705zm0-42.92c-2.734-10.937-6.738-19.678-12.011-26.22-5.176-6.543-12.061-11.817-20.655-15.821-8.594-4.004-17.627-6.006-27.099-6.006-15.625 0-29.053 5.03-40.284 15.088-8.203 7.324-14.404 18.311-18.603 32.959h118.652z" fill="#5775B7"/><path d="M275.031 312.119l2.326-4.426-4.188-2.201-2.429 4.061 4.291 2.566zm17.285 9.082l4.457 2.267 2.237-4.398-4.368-2.295-2.326 4.426zm-44.677 42.627l1.771 4.676.022-.008.021-.009-1.814-4.659zm-92.432-20.215l-3.796 3.254.004.006.005.005 3.787-3.265zm-3.369-111.914l3.935 3.085.004-.006-3.939-3.079zm128.174.733l-3.93 3.091.005.007.005.006 3.92-3.104zm17.578 54.492v5h5.045l-.045-5.045-5 .045zm-143.262 0v-5h-5.106l.107 5.105 4.999-.105zm17.725 45.703l-3.609 3.461.007.007.007.008 3.595-3.476zm65.918 13.477l-1.723-4.694-.01.003-.01.004 1.743 4.687zm37.06-76.905v5h6.404l-1.553-6.212-4.851 1.212zm-12.011-26.22l-3.922 3.102.014.017.015.018 3.893-3.137zm-88.038-6.739l3.331 3.73.005-.005-3.336-3.725zm-18.603 32.959l-4.807-1.378-1.828 6.378h6.635v-5zm116.327 47.346l17.285 9.082 4.651-8.852-17.285-9.082-4.651 8.852zm15.154 2.389c-5.456 10.724-11.666 19.193-18.56 25.543l6.775 7.355c7.949-7.322 14.826-16.822 20.698-28.364l-8.913-4.534zm-18.56 25.543c-6.97 6.419-14.787 11.308-23.476 14.692l3.629 9.318c9.866-3.842 18.748-9.403 26.622-16.655l-6.775-7.355zm-23.433 14.676c-8.619 3.266-18.502 4.949-29.722 4.949v10c12.216 0 23.33-1.833 33.265-5.598l-3.543-9.351zm-29.722 4.949c-24.777 0-43.607-8.042-57.151-23.753l-7.574 6.529c15.753 18.273 37.548 27.224 64.725 27.224v-10zm-57.142-23.743c-13.912-16.23-20.769-34.377-20.769-54.607h-10c0 22.738 7.792 43.166 23.177 61.115l7.592-6.508zm-20.769-54.607c0-19.103 5.831-36.033 17.539-50.968l-7.87-6.17c-13.097 16.706-19.669 35.811-19.669 57.138h10zm17.543-50.974c14.74-18.859 34.309-28.255 59.196-28.255v-10c-27.848 0-50.369 10.722-67.075 32.097l7.879 6.158zm59.196-28.255c25.678 0 45.885 9.649 61.109 29l7.859-6.183c-17.197-21.859-40.35-32.817-68.968-32.817v10zm61.119 29.013c10.719 13.534 16.311 30.566 16.498 51.433l10-.09c-.204-22.688-6.33-41.984-18.659-57.552l-7.839 6.209zm21.498 46.388H154.328v10H297.59v-10zm-148.261 5.105c.414 19.64 6.712 36.126 19.115 49.059l7.217-6.922c-10.448-10.895-15.966-24.878-16.334-42.347l-9.998.21zm19.129 49.074c12.391 12.814 27.81 19.249 45.929 19.249v-10c-15.475 0-28.279-5.382-38.74-16.201l-7.189 6.952zm45.929 19.249c8.702 0 17.153-1.523 25.326-4.562l-3.485-9.373c-7.061 2.625-14.332 3.935-21.841 3.935v10zm25.307-4.555c8.202-3.011 15.297-7.06 21.193-12.206l-6.575-7.534c-4.846 4.229-10.837 7.7-18.064 10.353l3.446 9.387zm21.193-12.206c5.95-5.192 12.078-13.277 18.435-23.905l-8.582-5.133c-6.142 10.269-11.635 17.321-16.428 21.504l6.575 7.534zm18.995-70.604c-2.853-11.413-7.114-20.88-12.969-28.146l-7.786 6.275c4.69 5.82 8.438 13.834 11.054 24.296l9.701-2.425zm-12.941-28.11c-5.722-7.233-13.261-12.963-22.464-17.251l-4.223 9.064c7.984 3.72 14.214 8.538 18.844 14.391l7.843-6.204zm-22.464-17.251c-9.255-4.312-19.009-6.474-29.211-6.474v10c8.742 0 17.055 1.842 24.988 5.538l4.223-9.064zm-29.211-6.474c-16.807 0-31.436 5.452-43.619 16.364l6.671 7.449c10.278-9.205 22.504-13.813 36.948-13.813v-10zm-43.614 16.359c-9.129 8.151-15.717 20.091-20.08 35.31l9.613 2.756c4.036-14.077 9.851-24.11 17.128-30.607l-6.661-7.459zm-15.273 41.688h118.652v-10H156.379v10zM466.667 116.667c9.166 0 16.583-7.5 16.583-16.667l.083-83.3333C483.333 7.5 475.833 0 466.667 0H333.333c-9.166 0-16.666 7.5-16.666 16.6667V100c0 9.167 7.5 16.667 16.666 16.667h-25c-4.583 0-8.333 3.75-8.333 8.333s3.75 8.333 8.333 8.333h183.334c4.583 0 8.333-3.75 8.333-8.333s-3.75-8.333-8.333-8.333h-25zm-125-100.0003h116.666c4.584 0 8.334 3.75 8.334 8.3333v66.6667c0 4.5833-3.75 8.3333-8.334 8.3333H341.667c-4.584 0-8.334-3.75-8.334-8.3333V25c0-4.5833 3.75-8.3333 8.334-8.3333zM555.879 53.2c.729-1.2755 1.781-2.3357 3.052-3.0732 1.27-.7376 2.712-1.1263 4.181-1.1268h42.784c1.469.0005 2.911.3892 4.181 1.1268 1.271.7375 2.323 1.7977 3.052 3.0732l4.762 8.3333c2.7 4.725.205 10.4292-4.541 12.0292.021.3417.016.6833-.009 1.0292l-3.57 50.0003c-.15 2.102-1.091 4.07-2.633 5.506-1.543 1.437-3.572 2.235-5.68 2.235h-33.912c-2.108 0-4.138-.798-5.68-2.235-1.542-1.436-2.483-3.404-2.633-5.506l-3.571-50.0003c-.025-.3425-.029-.6862-.012-1.0292-4.742-1.6-7.238-7.3042-4.542-12.0292l4.767-8.3333h.004zm8.1 20.8l.892 12.5h39.266l.892-12.5h-41.05zm2.679 37.5l.892 12.5h33.908l.892-12.5h-35.692zm44-45.8333l-4.762-8.3334h-42.784l-4.762 8.3334h52.308z" fill="#F6F8FB"/></g><defs><clipPath id="clip0_857_289"><path fill="#fff" d="M0 0h1280v370H0z"/></clipPath></defs></svg>