<svg width="1280" height="370" viewBox="0 0 1280 370" fill="none" xmlns="http://www.w3.org/2000/svg"><g clip-path="url(#clip0_857_289)"><path fill="#F6F8FB" d="M0 132h1280v8H0zM335.852 205.625h20.507v28.564c8.203-10.937 17.286-19.091 27.246-24.462 9.961-5.469 20.801-8.204 32.52-8.204 11.914 0 22.461 3.028 31.641 9.082 9.277 6.055 16.113 14.209 20.507 24.463 4.395 10.254 6.592 26.221 6.592 47.901V365h-20.361v-76.025c0-18.36-.781-30.616-2.344-36.768-2.441-10.547-7.031-18.457-13.769-23.73-6.739-5.372-15.528-8.057-26.368-8.057-12.402 0-23.535 4.101-33.398 12.305-9.766 8.203-16.211 18.359-19.336 30.468-1.953 7.911-2.93 22.364-2.93 43.36V365h-20.507V205.625zm263.232 17.432L585.9 236.68c-10.937-10.645-21.63-15.967-32.08-15.967-6.64 0-12.353 2.197-17.138 6.592-4.688 4.394-7.032 9.521-7.032 15.381 0 5.175 1.954 10.107 5.86 14.794 3.906 4.786 12.109 10.401 24.609 16.846 15.235 7.91 25.586 15.528 31.055 22.852 5.371 7.422 8.056 15.771 8.056 25.049 0 13.085-4.589 24.169-13.769 33.252-9.18 9.082-20.654 13.623-34.424 13.623-9.18 0-17.969-2.002-26.367-6.006-8.301-4.004-15.186-9.522-20.654-16.553l12.89-14.648c10.449 11.816 21.533 17.724 33.252 17.724 8.203 0 15.186-2.637 20.947-7.91 5.762-5.273 8.643-11.475 8.643-18.604 0-5.859-1.904-11.084-5.713-15.673-3.808-4.493-12.402-10.157-25.781-16.993-14.356-7.421-24.121-14.746-29.297-21.972-5.176-7.227-7.764-15.479-7.764-24.756 0-12.109 4.102-22.168 12.305-30.176 8.301-8.008 18.75-12.012 31.348-12.012 14.648 0 29.394 7.178 44.238 21.534zm36.475-78.955h20.507v90.087c8.301-10.937 17.432-19.091 27.393-24.462 9.961-5.469 20.752-8.204 32.373-8.204 11.914 0 22.461 3.028 31.641 9.082 9.277 6.055 16.113 14.209 20.507 24.463 4.395 10.157 6.592 26.123 6.592 47.901V365h-20.508v-76.025c0-18.36-.732-30.616-2.197-36.768-2.539-10.547-7.178-18.457-13.916-23.73-6.64-5.372-15.381-8.057-26.221-8.057-12.402 0-23.535 4.101-33.398 12.305-9.766 8.203-16.211 18.359-19.336 30.468-1.953 7.813-2.93 22.266-2.93 43.36V365h-20.507V144.102zM825.842 140c4.687 0 8.691 1.66 12.012 4.98 3.32 3.321 4.98 7.325 4.98 12.012 0 4.59-1.66 8.545-4.98 11.865-3.321 3.321-7.325 4.981-12.012 4.981-4.59 0-8.545-1.66-11.865-4.981-3.321-3.32-4.981-7.275-4.981-11.865 0-4.687 1.66-8.691 4.981-12.012 3.32-3.32 7.275-4.98 11.865-4.98zm-10.254 65.625h20.654V365h-20.654V205.625zm81.006-59.18h20.654v59.18h32.52v17.578h-32.52V365h-20.654V223.203h-27.979v-17.578h27.979v-59.18zm242.576 59.18V365h-20.21v-27.393c-8.6 10.45-18.26 18.311-29.01 23.584-10.64 5.274-22.31 7.911-35.01 7.911-22.56 0-41.84-8.155-57.858-24.463-15.918-16.407-23.877-36.328-23.877-59.766 0-22.949 8.057-42.578 24.17-58.887 16.115-16.308 35.495-24.463 58.155-24.463 13.09 0 24.9 2.784 35.45 8.35 10.64 5.566 19.97 13.916 27.98 25.049v-29.297h20.21zm-82.03 15.674c-11.43 0-21.97 2.832-31.64 8.496-9.67 5.566-17.38 13.428-23.14 23.584-5.669 10.156-8.501 20.898-8.501 32.226 0 11.231 2.881 21.973 8.641 32.227 5.76 10.254 13.48 18.262 23.15 24.023 9.76 5.665 20.21 8.497 31.34 8.497 11.23 0 21.88-2.832 31.94-8.497 10.06-5.664 17.77-13.33 23.14-22.998 5.47-9.668 8.21-20.556 8.21-32.666 0-18.457-6.11-33.886-18.32-46.289-12.1-12.402-27.05-18.603-44.82-18.603z"/><path d="M275.031 312.119l17.285 9.082c-5.664 11.133-12.207 20.117-19.628 26.953-7.422 6.836-15.772 12.061-25.049 15.674-9.278 3.516-19.776 5.274-31.494 5.274-25.977 0-46.29-8.497-60.938-25.489-14.648-17.09-21.973-36.377-21.973-57.861 0-20.215 6.202-38.232 18.604-54.053 15.723-20.117 36.767-30.176 63.135-30.176 27.148 0 48.828 10.303 65.039 30.909 11.523 14.55 17.383 32.714 17.578 54.492H154.328c.391 18.555 6.299 33.789 17.725 45.703 11.426 11.816 25.537 17.725 42.334 17.725 8.105 0 15.967-1.416 23.584-4.248 7.715-2.833 14.258-6.592 19.629-11.28 5.371-4.687 11.181-12.256 17.431-22.705zm0-42.92c-2.734-10.937-6.738-19.678-12.011-26.22-5.176-6.543-12.061-11.817-20.655-15.821-8.594-4.004-17.627-6.006-27.099-6.006-15.625 0-29.053 5.03-40.284 15.088-8.203 7.324-14.404 18.311-18.603 32.959h118.652z" fill="#5775B7"/><path d="M275.031 312.119l.698-1.328-1.256-.66-.729 1.218 1.287.77zm17.285 9.082l1.337.68.672-1.319-1.311-.689-.698 1.328zm-44.677 42.627l.531 1.403.013-.005-.544-1.398zm-92.432-20.215l-1.139.976.003.004 1.136-.98zm-3.369-111.914l1.18.926.002-.002-1.182-.924zm128.174.733l-1.179.927.003.004 1.176-.931zm17.578 54.492v1.5h1.513l-.013-1.514-1.5.014zm-143.262 0v-1.5h-1.532l.032 1.531 1.5-.031zm17.725 45.703l-1.083 1.038.004.005 1.079-1.043zm65.918 13.477l-.517-1.409-.006.003.523 1.406zm37.06-76.905v1.5h1.921l-.466-1.864-1.455.364zm-12.011-26.22l-1.177.93.009.011 1.168-.941zm-88.038-6.739l.999 1.119.002-.001-1.001-1.118zm-18.603 32.959l-1.442-.413-.549 1.913h1.991v-1.5zm117.955 44.248l17.285 9.082 1.395-2.656-17.285-9.082-1.395 2.656zm16.645 7.074c-5.601 11.01-12.044 19.84-19.308 26.53l2.033 2.207c7.58-6.982 14.223-16.121 19.949-27.377l-2.674-1.36zm-19.308 26.53c-7.286 6.711-15.476 11.835-24.577 15.379l1.089 2.796c9.454-3.682 17.963-9.008 25.521-15.968l-2.033-2.207zm-24.564 15.374c-9.08 3.441-19.393 5.177-30.962 5.177v3c11.868 0 22.55-1.781 32.025-5.371l-1.063-2.806zm-30.962 5.177c-25.617 0-45.485-8.36-59.802-24.968l-2.272 1.959c14.98 17.376 35.737 26.009 62.074 26.009v-3zm-59.799-24.965c-14.428-16.832-21.612-35.777-21.612-56.885h-3c0 21.861 7.465 41.49 22.334 58.837l2.278-1.952zm-21.612-56.885c0-19.881 6.09-37.573 18.284-53.127l-2.361-1.851c-12.61 16.086-18.923 34.43-18.923 54.978h3zm18.286-53.129c15.427-19.74 36.03-29.6 61.953-29.6v-3c-26.812 0-48.299 10.258-64.317 30.753l2.364 1.847zm61.953-29.6c26.707 0 47.945 10.107 63.86 30.336l2.358-1.855c-16.507-20.981-38.629-31.481-66.218-31.481v3zm63.863 30.34c11.282 14.246 17.061 32.07 17.254 53.574l3-.027c-.198-22.05-6.137-40.554-17.902-55.41l-2.352 1.863zm18.754 52.061H154.328v3H297.59v-3zm-144.762 1.531c.398 18.881 6.423 34.49 18.142 46.71l2.165-2.076c-11.132-11.609-16.923-26.468-17.307-44.697l-3 .063zm18.146 46.715c11.716 12.115 26.219 18.182 43.413 18.182v-3c-16.401 0-30.12-5.751-41.256-17.268l-2.157 2.086zm43.413 18.182c8.284 0 16.322-1.448 24.106-4.343l-1.045-2.811c-7.45 2.77-15.135 4.154-23.061 4.154v3zm24.101-4.34c7.861-2.886 14.569-6.733 20.098-11.558l-1.973-2.26c-5.213 4.55-11.591 8.223-19.159 11.001l1.034 2.817zm20.098-11.558c5.544-4.839 11.45-12.562 17.733-23.065l-2.575-1.54c-6.218 10.396-11.933 17.809-17.131 22.345l1.973 2.26zm17.9-67.119c-2.77-11.08-6.85-20.038-12.299-26.798l-2.335 1.883c5.098 6.326 9.025 14.848 11.724 25.643l2.91-.728zm-12.29-26.787c-5.34-6.75-12.421-12.16-21.197-16.249l-1.267 2.719c8.411 3.919 15.099 9.055 20.111 15.391l2.353-1.861zm-21.197-16.249c-8.792-4.097-18.042-6.147-27.733-6.147v3c9.253 0 18.07 1.954 26.466 5.866l1.267-2.719zm-27.733-6.147c-15.98 0-29.768 5.156-41.284 15.471l2.001 2.235c10.945-9.803 24.012-14.706 39.283-14.706v-3zm-41.283 15.469c-8.481 7.573-14.798 18.845-19.046 33.665l2.884.827c4.15-14.478 10.235-25.178 18.16-32.254l-1.998-2.238zm-17.604 35.578h118.652v-3H156.379v3zM466.667 116.667c9.166 0 16.583-7.5 16.583-16.667l.083-83.3333C483.333 7.5 475.833 0 466.667 0H333.333c-9.166 0-16.666 7.5-16.666 16.6667V100c0 9.167 7.5 16.667 16.666 16.667h-25c-4.583 0-8.333 3.75-8.333 8.333s3.75 8.333 8.333 8.333h183.334c4.583 0 8.333-3.75 8.333-8.333s-3.75-8.333-8.333-8.333h-25zm-125-100.0003h116.666c4.584 0 8.334 3.75 8.334 8.3333v66.6667c0 4.5833-3.75 8.3333-8.334 8.3333H341.667c-4.584 0-8.334-3.75-8.334-8.3333V25c0-4.5833 3.75-8.3333 8.334-8.3333zM555.879 53.2c.729-1.2755 1.781-2.3357 3.052-3.0732 1.27-.7376 2.712-1.1263 4.181-1.1268h42.784c1.469.0005 2.911.3892 4.181 1.1268 1.271.7375 2.323 1.7977 3.052 3.0732l4.762 8.3333c2.7 4.725.205 10.4292-4.541 12.0292.021.3417.016.6833-.009 1.0292l-3.57 50.0003c-.15 2.102-1.091 4.07-2.633 5.506-1.543 1.437-3.572 2.235-5.68 2.235h-33.912c-2.108 0-4.138-.798-5.68-2.235-1.542-1.436-2.483-3.404-2.633-5.506l-3.571-50.0003c-.025-.3425-.029-.6862-.012-1.0292-4.742-1.6-7.238-7.3042-4.542-12.0292l4.767-8.3333h.004zm8.1 20.8l.892 12.5h39.266l.892-12.5h-41.05zm2.679 37.5l.892 12.5h33.908l.892-12.5h-35.692zm44-45.8333l-4.762-8.3334h-42.784l-4.762 8.3334h52.308z" fill="#F6F8FB"/></g><defs><clipPath id="clip0_857_289"><path fill="#fff" d="M0 0h1280v370H0z"/></clipPath></defs></svg>