<svg width="829" height="484" viewBox="0 0 829 484" fill="none" xmlns="http://www.w3.org/2000/svg">
<path d="M502.5 269H17C12.4929 268.995 8.17181 267.202 4.98479 264.015C1.79777 260.828 0.00507387 256.507 0 252V17C0.00507387 12.4929 1.79777 8.17181 4.98479 4.98479C8.17181 1.79777 12.4929 0.00507387 17 0H502.5C507.007 0.00507387 511.328 1.79777 514.515 4.98479C517.702 8.17181 519.495 12.4929 519.5 17V252C519.495 256.507 517.702 260.828 514.515 264.015C511.328 267.202 507.007 268.995 502.5 269V269ZM17 2C13.0231 2.0045 9.21043 3.58629 6.39836 6.39836C3.58629 9.21043 2.0045 13.0231 2 17V252C2.0045 255.977 3.58629 259.79 6.39836 262.602C9.21043 265.414 13.0231 266.996 17 267H502.5C506.477 266.996 510.29 265.414 513.102 262.602C515.914 259.79 517.496 255.977 517.5 252V17C517.496 13.0231 515.914 9.21043 513.102 6.39836C510.29 3.58629 506.477 2.0045 502.5 2H17Z" fill="#3F3D56"/>
<path d="M568.609 203.058C567.473 203.055 566.339 202.941 565.224 202.718H565.223C565.02 202.678 564.816 202.634 564.612 202.587L319.715 145.567C317.055 144.948 315.288 143.274 315.605 141.674C315.739 141.203 316 140.778 316.36 140.446C316.719 140.114 317.164 139.888 317.644 139.792C318.826 139.466 320.071 139.439 321.266 139.711L567.684 191.173C573.232 192.332 577.084 195.737 576.453 198.925C576.122 200.593 574.653 201.887 572.315 202.567C571.109 202.904 569.862 203.069 568.609 203.058Z" fill="#3F3D56"/>
<path d="M516.732 195.169C517.999 195.914 519.415 196.372 520.878 196.511C522.342 196.649 523.818 196.466 525.203 195.972C526.588 195.479 527.847 194.688 528.893 193.655C529.939 192.622 530.746 191.372 531.257 189.993L566.984 190.738L557.086 175.026L524.677 176.728C522.304 176.023 519.755 176.213 517.514 177.262C515.272 178.311 513.493 180.146 512.514 182.419C511.534 184.693 511.423 187.246 512.2 189.596C512.978 191.945 514.59 193.928 516.732 195.169V195.169Z" fill="#FFB8B8"/>
<path d="M532.25 189.462L532.064 178.511C532.05 177.381 532.46 176.286 533.213 175.443C533.966 174.6 535.007 174.069 536.131 173.955L600.332 167.76L653.823 150.222C655.437 149.692 657.141 149.489 658.834 149.624C660.528 149.759 662.178 150.229 663.688 151.007C665.199 151.786 666.539 152.856 667.632 154.157C668.725 155.458 669.548 156.964 670.054 158.586C670.56 160.208 670.738 161.914 670.579 163.606C670.419 165.297 669.925 166.94 669.125 168.439C668.325 169.938 667.235 171.263 665.918 172.336C664.602 173.41 663.085 174.212 661.455 174.694L602.249 192.224L536.862 193.885C535.874 193.909 534.905 193.607 534.105 193.026C533.305 192.446 532.717 191.618 532.434 190.671C532.318 190.278 532.256 189.871 532.25 189.462V189.462Z" fill="#3F3D56"/>
<path d="M627.258 471.782L614.998 471.781L609.166 424.493L627.26 424.494L627.258 471.782Z" fill="#FFB8B8"/>
<path d="M630.385 483.666L590.854 483.664V483.164C590.854 481.144 591.252 479.143 592.026 477.276C592.799 475.409 593.932 473.713 595.361 472.284C596.79 470.856 598.486 469.722 600.353 468.949C602.22 468.176 604.22 467.778 606.241 467.778H606.242L630.386 467.779L630.385 483.666Z" fill="#2F2E41"/>
<path d="M663.258 471.782L650.998 471.781L645.166 424.493L663.26 424.494L663.258 471.782Z" fill="#FFB8B8"/>
<path d="M666.385 483.666L626.854 483.664V483.164C626.854 481.144 627.252 479.143 628.026 477.276C628.799 475.409 629.932 473.713 631.361 472.284C632.79 470.856 634.486 469.722 636.353 468.949C638.22 468.176 640.22 467.778 642.241 467.778H642.242L666.386 467.779L666.385 483.666Z" fill="#2F2E41"/>
<path d="M671.486 280.674L668.559 454.368C668.55 454.918 668.427 455.46 668.199 455.961C667.97 456.461 667.641 456.909 667.232 457.277C666.823 457.644 666.342 457.923 665.82 458.097C665.297 458.27 664.745 458.334 664.197 458.284L649.851 456.98C648.91 456.894 648.03 456.478 647.366 455.806C646.702 455.133 646.298 454.247 646.225 453.305L637.826 344.96C637.807 344.706 637.69 344.468 637.501 344.297C637.312 344.125 637.065 344.032 636.81 344.038C636.554 344.043 636.311 344.145 636.129 344.324C635.947 344.503 635.84 344.744 635.83 344.999L631.632 455.825C631.593 456.859 631.155 457.838 630.409 458.555C629.664 459.273 628.67 459.674 627.635 459.674H612.249C611.231 459.674 610.25 459.285 609.509 458.587C608.767 457.889 608.319 456.935 608.257 455.918L597.486 279.674L661.486 263.674L671.486 280.674Z" fill="#2F2E41"/>
<path d="M625.065 117.577C638.63 117.577 649.626 106.581 649.626 93.0163C649.626 79.4517 638.63 68.4553 625.065 68.4553C611.5 68.4553 600.504 79.4517 600.504 93.0163C600.504 106.581 611.5 117.577 625.065 117.577Z" fill="#FFB8B8"/>
<path d="M595.295 285.841C594.869 285.43 594.529 284.939 594.295 284.395C594.061 283.852 593.937 283.267 593.93 282.676L592.273 164.233C592.174 158.208 593.986 152.307 597.451 147.376C600.915 142.446 605.853 138.74 611.555 136.792C613.856 126.353 626.103 125.045 633.243 125.201C635.025 125.24 636.771 125.707 638.334 126.564C639.897 127.421 641.23 128.642 642.22 130.124L647.338 137.801L658.618 144.413C663.839 147.46 667.957 152.087 670.378 157.625C672.799 163.164 673.398 169.328 672.089 175.23L670.352 183.129C664.237 211.088 664.818 240.097 672.05 267.789L675.544 281.113C675.726 281.807 675.74 282.535 675.584 283.235C675.428 283.935 675.106 284.588 674.646 285.139C674.187 285.689 673.602 286.122 672.941 286.401C672.28 286.68 671.562 286.796 670.846 286.741L666.788 286.429C665.734 286.349 664.742 285.9 663.987 285.162C663.231 284.423 662.759 283.442 662.655 282.391L661.984 275.674C661.971 275.551 661.914 275.436 661.822 275.353C661.73 275.27 661.61 275.224 661.486 275.224C661.362 275.224 661.243 275.27 661.151 275.353C661.059 275.436 661.001 275.551 660.989 275.674L660.338 282.177C660.229 283.275 659.719 284.295 658.906 285.042C658.093 285.79 657.034 286.212 655.93 286.229L598.499 287.112C598.475 287.112 598.451 287.113 598.427 287.113C597.257 287.116 596.132 286.659 595.295 285.841V285.841Z" fill="#3F3D56"/>
<path d="M626.986 107.174C627.087 110.646 629.497 112.654 632.457 114.473C635.416 116.292 638.876 117.08 642.265 117.841C642.72 118.083 643.23 118.203 643.745 118.19C644.26 118.178 644.764 118.032 645.206 117.769C645.649 117.505 646.016 117.131 646.273 116.684C646.529 116.237 646.666 115.732 646.67 115.216L649.778 103.393C650.878 99.6162 651.678 95.7586 652.171 91.856C652.92 84.3469 651.14 76.269 645.899 70.8397C640.658 65.4104 631.568 63.4817 625.288 67.6649C617.834 58.1451 583.764 79.1779 592.169 85.7977C593.664 86.9754 595.949 85.4852 597.847 85.3408C599.745 85.1963 601.871 85.5302 603.077 87.003C604.652 88.9272 603.966 91.7935 604.615 94.1939C604.883 95.0385 605.316 95.8215 605.889 96.498C606.462 97.1744 607.162 97.7307 607.951 98.1349C608.74 98.5392 609.601 98.7833 610.484 98.8532C611.368 98.9231 612.256 98.8174 613.099 98.5422C614.668 97.7691 616.144 96.8201 617.498 95.7136C618.954 94.744 620.794 94.0276 622.432 94.6391C624.592 95.4452 625.359 98.0895 625.555 100.387C625.884 102.678 626.362 104.945 626.986 107.174V107.174Z" fill="#2F2E41"/>
<path opacity="0.2" d="M621.25 173L617.25 222L596.25 273L627.25 223L621.25 173Z" fill="black"/>
<path d="M591.34 291.992C592.486 291.072 593.417 289.911 594.066 288.592C594.715 287.273 595.067 285.828 595.098 284.358C595.128 282.889 594.835 281.43 594.241 280.085C593.647 278.741 592.765 277.543 591.657 276.576L605.036 243.44L586.834 247.116L576.92 278.019C575.419 279.987 574.692 282.437 574.877 284.905C575.062 287.373 576.146 289.688 577.923 291.41C579.701 293.133 582.048 294.143 584.521 294.251C586.994 294.358 589.42 293.554 591.34 291.992V291.992Z" fill="#FFB8B8"/>
<path d="M590.366 277.378L580.062 273.665C579.001 273.276 578.123 272.504 577.602 271.501C577.081 270.498 576.954 269.337 577.247 268.245L594.244 206.026L596.836 149.793C596.914 148.096 597.329 146.431 598.056 144.895C598.783 143.36 599.809 141.984 601.072 140.848C602.336 139.713 603.813 138.839 605.417 138.279C607.021 137.72 608.721 137.484 610.417 137.587C612.113 137.69 613.771 138.129 615.296 138.878C616.821 139.628 618.182 140.673 619.299 141.953C620.416 143.233 621.268 144.723 621.804 146.335C622.341 147.947 622.551 149.65 622.424 151.344L617.795 212.918L596.138 274.636C595.809 275.568 595.184 276.367 594.357 276.909C593.53 277.451 592.548 277.706 591.562 277.635C591.153 277.604 590.751 277.518 590.366 277.378Z" fill="#3F3D56"/>
</svg>
